<svg xmlns="http://www.w3.org/2000/svg" xmlns:xlink="http://www.w3.org/1999/xlink" width="24px" height="28px" 
    version="1.1" style="background-color: rgb(255, 255, 255);">
    <defs/>
    <g transform="translate(0.5,0.5)">
        <path d="M 14.43 14.56 C 17.44 14.56 21.42 12.49 21.42 8.97 C 21.42 5.38 17.71 3.2 14.43 3.2 C 10.09 3.2 7.2 5.86 7.2 8.97 C 7.2 12.32 10.87 14.56 14.43 14.56 Z M 1.66 21.29 C 0.69 22 -0.61 21.95 -1.31 21.35 C -2 20.7 -1.95 19.78 -1.19 19.07 L 4.78 14.29 C 5.3 13.94 6.06 13.71 6.65 13.82 L 7.51 13.14 C 6.53 12.07 5.74 10.85 5.68 8.97 C 5.68 5.5 9.02 2 14.43 2 C 19.18 2 23 5.14 23 8.97 C 23 12.78 18.97 15.79 14.43 15.79 C 12.51 15.76 10.7 15.36 9.05 14.34 L 8.2 15.03 C 8.25 15.56 8.09 16.03 7.66 16.43 Z"
        fill="#000000" stroke="none" transform="translate(2,3)rotate(-90,10.5,12)" opacity="0.25"/>
        <path d="M 14.43 14.56 C 17.44 14.56 21.42 12.49 21.42 8.97 C 21.42 5.38 17.71 3.2 14.43 3.2 C 10.09 3.2 7.2 5.86 7.2 8.97 C 7.2 12.32 10.87 14.56 14.43 14.56 Z M 1.66 21.29 C 0.69 22 -0.61 21.95 -1.31 21.35 C -2 20.7 -1.95 19.78 -1.19 19.07 L 4.78 14.29 C 5.3 13.94 6.06 13.71 6.65 13.82 L 7.51 13.14 C 6.53 12.07 5.74 10.85 5.68 8.97 C 5.68 5.5 9.02 2 14.43 2 C 19.18 2 23 5.14 23 8.97 C 23 12.78 18.97 15.79 14.43 15.79 C 12.51 15.76 10.7 15.36 9.05 14.34 L 8.2 15.03 C 8.25 15.56 8.09 16.03 7.66 16.43 Z" 
        fill="#3333ff" stroke="none" transform="rotate(-90,10.5,12)" pointer-events="none"/>
    </g>
</svg>